<?xml version="1.0" encoding="UTF-8" standalone="no"?>
<!-- Created with Inkscape (http://www.inkscape.org/) -->

<svg
   width="5"
   height="7"
   viewBox="0 0 1.3229166 1.8520833"
   version="1.1"
   id="svg1"
   xml:space="preserve"
   inkscape:version="1.3.2 (091e20e, 2023-11-25, custom)"
   sodipodi:docname="LCD_font.svg"
   xmlns:inkscape="http://www.inkscape.org/namespaces/inkscape"
   xmlns:sodipodi="http://sodipodi.sourceforge.net/DTD/sodipodi-0.dtd"
   xmlns="http://www.w3.org/2000/svg"
   xmlns:svg="http://www.w3.org/2000/svg"><sodipodi:namedview
     id="namedview1"
     pagecolor="#ffffff"
     bordercolor="#cccccc"
     borderopacity="1"
     inkscape:showpageshadow="0"
     inkscape:pageopacity="1"
     inkscape:pagecheckerboard="0"
     inkscape:deskcolor="#d1d1d1"
     inkscape:document-units="px"
     showgrid="true"
     showguides="true"
     inkscape:lockguides="false"
     inkscape:zoom="8.2747366"
     inkscape:cx="80.123396"
     inkscape:cy="-6.7071621"
     inkscape:window-width="1920"
     inkscape:window-height="1017"
     inkscape:window-x="-8"
     inkscape:window-y="-8"
     inkscape:window-maximized="1"
     inkscape:current-layer="layer1"><inkscape:grid
       id="grid1"
       units="px"
       originx="0"
       originy="0"
       spacingx="0.26458332"
       spacingy="0.26458333"
       empcolor="#0099e5"
       empopacity="0.30196078"
       color="#0099e5"
       opacity="0.14901961"
       empspacing="5"
       dotted="false"
       gridanglex="30"
       gridanglez="30"
       visible="true" /><sodipodi:guide
       position="31.749999,-0.26458326"
       orientation="0,-1"
       id="guide63"
       inkscape:locked="false" /><sodipodi:guide
       position="1.0583333,6.4020919e-08"
       orientation="0,-1"
       id="guide64"
       inkscape:locked="false" /><sodipodi:guide
       position="1.5874999,-2.1166665"
       orientation="0,-1"
       id="guide65"
       inkscape:locked="false" /><sodipodi:guide
       position="3.9687498,1.8520833"
       orientation="1,0"
       id="guide72"
       inkscape:locked="false" /><sodipodi:guide
       position="4.2333331,1.8520833"
       orientation="1,0"
       id="guide73"
       inkscape:locked="false" /><sodipodi:guide
       position="5.8208331,1.8520833"
       orientation="1,0"
       id="guide74"
       inkscape:locked="false" /><sodipodi:guide
       position="5.5562497,1.8520833"
       orientation="1,0"
       id="guide75"
       inkscape:locked="false" /><sodipodi:guide
       position="7.1437496,1.8520833"
       orientation="1,0"
       id="guide76"
       inkscape:locked="false" /><sodipodi:guide
       position="7.4083329,1.8520833"
       orientation="1,0"
       id="guide77"
       inkscape:locked="false" /><sodipodi:guide
       position="8.7312495,1.8520833"
       orientation="1,0"
       id="guide78"
       inkscape:locked="false" /><sodipodi:guide
       position="8.9958329,1.8520833"
       orientation="1,0"
       id="guide79"
       inkscape:locked="false" /><sodipodi:guide
       position="10.583333,1.8520833"
       orientation="1,0"
       id="guide80"
       inkscape:locked="false" /><sodipodi:guide
       position="10.318749,1.8520833"
       orientation="1,0"
       id="guide81"
       inkscape:locked="false" /><sodipodi:guide
       position="11.906249,1.8520833"
       orientation="1,0"
       id="guide92"
       inkscape:locked="false" /><sodipodi:guide
       position="12.170833,1.8520833"
       orientation="1,0"
       id="guide93"
       inkscape:locked="false" /><sodipodi:guide
       position="13.493749,6.4020921e-08"
       orientation="1,0"
       id="guide96"
       inkscape:locked="false" /><sodipodi:guide
       position="13.758333,6.4020921e-08"
       orientation="1,0"
       id="guide97"
       inkscape:locked="false" /><sodipodi:guide
       position="15.081249,0.5291667"
       orientation="1,0"
       id="guide100"
       inkscape:locked="false" /><sodipodi:guide
       position="15.345833,1.8520833"
       orientation="1,0"
       id="guide101"
       inkscape:locked="false" /><sodipodi:guide
       position="16.668749,1.8520833"
       orientation="1,0"
       id="guide105"
       inkscape:locked="false" /><sodipodi:guide
       position="18.256249,1.8520833"
       orientation="1,0"
       id="guide106"
       inkscape:locked="false" /><sodipodi:guide
       position="18.520832,1.8520833"
       orientation="1,0"
       id="guide111"
       inkscape:locked="false" /><sodipodi:guide
       position="2.6458332,-0.26458326"
       orientation="0,-1"
       id="guide112"
       inkscape:locked="false" /><sodipodi:guide
       position="2.6458332,-2.3812498"
       orientation="0,-1"
       id="guide113"
       inkscape:locked="false" /><sodipodi:guide
       position="19.843749,3.9687499"
       orientation="1,0"
       id="guide115"
       inkscape:locked="false" /><sodipodi:guide
       position="20.108333,3.9687498"
       orientation="1,0"
       id="guide116"
       inkscape:locked="false" /><sodipodi:guide
       position="21.431249,3.9687499"
       orientation="1,0"
       id="guide120"
       inkscape:locked="false" /><sodipodi:guide
       position="21.695833,3.9687499"
       orientation="1,0"
       id="guide121"
       inkscape:locked="false" /><sodipodi:guide
       position="23.018749,0.26458338"
       orientation="1,0"
       id="guide122"
       inkscape:locked="false" /><sodipodi:guide
       position="23.283332,0.26458338"
       orientation="1,0"
       id="guide123"
       inkscape:locked="false" /><sodipodi:guide
       position="24.606249,3.9687499"
       orientation="1,0"
       id="guide124"
       inkscape:locked="false" /><sodipodi:guide
       position="24.870832,3.9687499"
       orientation="1,0"
       id="guide125"
       inkscape:locked="false" /><sodipodi:guide
       position="26.193749,4.2333331"
       orientation="1,0"
       id="guide126"
       inkscape:locked="false" /><sodipodi:guide
       position="26.458332,4.3221392"
       orientation="1,0"
       id="guide127"
       inkscape:locked="false" /><sodipodi:guide
       position="27.781249,4.2333331"
       orientation="1,0"
       id="guide128"
       inkscape:locked="false" /><sodipodi:guide
       position="2.6458332,1.8520833"
       orientation="0,-1"
       id="guide129"
       inkscape:locked="false" /><sodipodi:guide
       position="29.368749,3.9687499"
       orientation="1,0"
       id="guide133"
       inkscape:locked="false" /><sodipodi:guide
       position="29.633332,4.2333331"
       orientation="1,0"
       id="guide134"
       inkscape:locked="false" /><sodipodi:guide
       position="30.956249,4.2333331"
       orientation="1,0"
       id="guide135"
       inkscape:locked="false" /><sodipodi:guide
       position="31.220832,4.2333331"
       orientation="1,0"
       id="guide136"
       inkscape:locked="false" /><sodipodi:guide
       position="32.543749,4.2333331"
       orientation="1,0"
       id="guide137"
       inkscape:locked="false" /><sodipodi:guide
       position="32.808332,4.2333331"
       orientation="1,0"
       id="guide144"
       inkscape:locked="false" /><sodipodi:guide
       position="34.131249,4.2333331"
       orientation="1,0"
       id="guide145"
       inkscape:locked="false" /><sodipodi:guide
       position="34.395832,4.2333331"
       orientation="1,0"
       id="guide146"
       inkscape:locked="false" /><sodipodi:guide
       position="35.718749,4.2333331"
       orientation="1,0"
       id="guide150"
       inkscape:locked="false" /><sodipodi:guide
       position="35.983332,3.9687499"
       orientation="1,0"
       id="guide151"
       inkscape:locked="false" /><sodipodi:guide
       position="37.306249,4.2333331"
       orientation="1,0"
       id="guide152"
       inkscape:locked="false" /><sodipodi:guide
       position="37.570832,4.2333331"
       orientation="1,0"
       id="guide153"
       inkscape:locked="false" /><sodipodi:guide
       position="38.893749,4.2333331"
       orientation="1,0"
       id="guide154"
       inkscape:locked="false" /><sodipodi:guide
       position="39.158332,4.2333331"
       orientation="1,0"
       id="guide155"
       inkscape:locked="false" /><sodipodi:guide
       position="40.481249,4.2333331"
       orientation="1,0"
       id="guide156"
       inkscape:locked="false" /><sodipodi:guide
       position="40.745832,4.2333331"
       orientation="1,0"
       id="guide157"
       inkscape:locked="false" /><sodipodi:guide
       position="42.068748,4.2333331"
       orientation="1,0"
       id="guide158"
       inkscape:locked="false" /><sodipodi:guide
       position="42.333332,3.9687499"
       orientation="1,0"
       id="guide159"
       inkscape:locked="false" /><sodipodi:guide
       position="43.656248,2.6458332"
       orientation="1,0"
       id="guide160"
       inkscape:locked="false" /><sodipodi:guide
       position="43.920832,3.061698"
       orientation="1,0"
       id="guide179"
       inkscape:locked="false" /><sodipodi:guide
       position="45.243748,3.1749998"
       orientation="1,0"
       id="guide180"
       inkscape:locked="false" /><sodipodi:guide
       position="45.508332,3.1749998"
       orientation="1,0"
       id="guide181"
       inkscape:locked="false" /><sodipodi:guide
       position="46.831248,2.9104165"
       orientation="1,0"
       id="guide183"
       inkscape:locked="false" /><sodipodi:guide
       position="47.095832,2.9104165"
       orientation="1,0"
       id="guide185"
       inkscape:locked="false" /><sodipodi:guide
       position="48.683332,2.7677729"
       orientation="1,0"
       id="guide186"
       inkscape:locked="false" /><sodipodi:guide
       position="48.418748,2.6458332"
       orientation="1,0"
       id="guide187"
       inkscape:locked="false" /><sodipodi:guide
       position="50.006248,2.3812499"
       orientation="1,0"
       id="guide188"
       inkscape:locked="false" /><sodipodi:guide
       position="50.270832,2.3812499"
       orientation="1,0"
       id="guide192"
       inkscape:locked="false" /><sodipodi:guide
       position="51.593748,2.3812499"
       orientation="1,0"
       id="guide193"
       inkscape:locked="false" /><sodipodi:guide
       position="51.858331,2.3812499"
       orientation="1,0"
       id="guide194"
       inkscape:locked="false" /><sodipodi:guide
       position="2.6458332,2.1166666"
       orientation="0,-1"
       id="guide195"
       inkscape:locked="false" /><sodipodi:guide
       position="2.6458332,3.9687499"
       orientation="0,-1"
       id="guide196"
       inkscape:locked="false" /><sodipodi:guide
       position="16.933332,3.9687499"
       orientation="1,0"
       id="guide227"
       inkscape:locked="false" /><sodipodi:guide
       position="53.181247,2.6458333"
       orientation="1,0"
       id="guide361"
       inkscape:locked="false" /><sodipodi:guide
       position="53.445831,3.96875"
       orientation="1,0"
       id="guide1"
       inkscape:locked="false" /><sodipodi:guide
       position="54.768747,3.9687499"
       orientation="1,0"
       id="guide2"
       inkscape:locked="false" /></sodipodi:namedview><defs
     id="defs1" /><g
     inkscape:label="Layer 1"
     inkscape:groupmode="layer"
     id="layer1"><path
       id="rect1"
       style="fill:#000000;fill-rule:evenodd;stroke-width:0.79375;stroke-linecap:round;paint-order:markers fill stroke"
       d="m 26.722916,-2.1166666 v 0.2645834 h 0.79375 v -0.2645834 z m 0.79375,0.2645834 v 0.2645833 h -0.264584 v 0.2645833 h 0.264584 v 0.79374995 h 0.264583 V -1.8520832 Z m 0,1.32291655 h -0.79375 v 0.2645834 h 0.79375 z m -0.79375,0 v -0.2645833 h 0.264583 V -1.0583332 h -0.264583 v -0.79375 h -0.264584 v 1.32291655 z m 0.264583,-0.52916655 h 0.264583 v -0.2645834 h -0.264583 z"
       inkscape:label="0" /><path
       id="rect7"
       style="fill:#000000;fill-rule:evenodd;stroke-width:0.79375;stroke-linecap:round;paint-order:markers fill stroke"
       d="m 28.574999,-2.1166666 v 0.2645833 H 28.310416 V -1.5875 h 0.264583 v 1.05833325 h -0.264583 v 0.2645834 h 0.79375 v -0.2645834 H 28.839582 V -2.1166666 Z"
       inkscape:label="1" /><path
       id="rect9"
       style="fill:#000000;fill-rule:evenodd;stroke-width:0.79375;stroke-linecap:round;paint-order:markers fill stroke"
       d="m 29.897916,-2.1166664 v 0.2645833 h 0.79375 v -0.2645833 z m 0.79375,0.2645833 v 0.2645833 h 0.264583 v -0.2645833 z m 0,0.2645833 h -0.264584 v 0.2645833 h 0.264584 z m -0.264584,0.2645833 h -0.264583 v 0.2645834 h 0.264583 z m -0.264583,0.2645834 h -0.264583 v 0.26458325 h 0.264583 z m -0.264583,0.26458325 h -0.264584 v 0.2645833 0.2645834 h 1.322917 v -0.2645834 h -1.058333 z m 0,-1.05833325 h -0.264584 v 0.2645833 h 0.264584 z"
       inkscape:label="2" /><path
       id="rect16"
       style="fill:#000000;fill-rule:evenodd;stroke-width:0.79375;stroke-linecap:round;paint-order:markers fill stroke"
       d="m 31.220832,-2.1166665 v 0.2645833 h 0.79375 v 0.2645834 h 0.264583 v -0.2645834 h 0.264584 v -0.2645833 z m 0.79375,0.5291667 h -0.264583 v 0.2645833 h 0.264583 z m 0,0.2645833 v 0.2645834 h 0.264583 v -0.2645834 z m 0.264583,0.2645834 v 0.52916655 h 0.264584 V -1.0583331 Z m 0,0.52916655 h -0.79375 v 0.2645834 h 0.79375 z m -0.79375,0 v -0.2645833 h -0.264583 v 0.2645833 z"
       inkscape:label="3" /><path
       id="rect22"
       style="fill:#000000;fill-rule:evenodd;stroke-width:0.79375;stroke-linecap:round;paint-order:markers fill stroke"
       d="m 33.602082,-2.1166666 v 0.2645833 H 33.337499 V -1.5875 h 0.264583 v 0.5291668 h -0.529167 v -0.2645834 h -0.264583 v 0.2645834 0.26458325 h 0.79375 v 0.5291667 h 0.264583 v -0.5291667 h 0.264583 V -1.0583332 h -0.264583 v -1.0583334 z m -0.529167,0.79375 h 0.264584 V -1.5875 h -0.264584 z"
       inkscape:label="4" /><path
       id="rect26"
       style="fill:#000000;fill-rule:evenodd;stroke-width:0.79375;stroke-linecap:round;paint-order:markers fill stroke"
       d="m 34.395832,-2.1166665 v 0.2645833 0.2645833 0.2645834 h 1.058334 v -0.2645834 h -0.793751 v -0.2645833 h 1.058334 v -0.2645833 z m 1.058334,0.79375 v 0.79374995 h 0.264583 V -1.3229165 Z m 0,0.79374995 h -0.793751 v 0.2645834 h 0.793751 z m -0.793751,0 v -0.2645833 h -0.264583 v 0.2645833 z"
       inkscape:label="5" /><path
       id="rect31"
       style="fill:#000000;fill-rule:evenodd;stroke-width:0.79375;stroke-linecap:round;paint-order:markers fill stroke"
       d="m 36.512498,-2.1166665 v 0.2645833 h 0.529167 v -0.2645833 z m 0,0.2645833 h -0.264583 v 0.2645833 h 0.264583 z m -0.264583,0.2645833 h -0.264583 v 1.05833335 h 0.264583 V -1.0583331 h 0.79375 v -0.2645835 h -0.79375 z m 0.79375,0.5291668 v 0.52916655 h 0.264583 V -1.0583331 Z m 0,0.52916655 h -0.79375 v 0.2645834 h 0.79375 z"
       inkscape:label="6" /><path
       id="rect36"
       style="fill:#000000;fill-rule:evenodd;stroke-width:0.79375;stroke-linecap:round;paint-order:markers fill stroke"
       d="m 37.570832,-2.1166665 v 0.2645834 h 1.058333 v 0.2645833 h 0.264583 v -0.2645833 -0.2645834 z m 1.058333,0.5291667 h -0.264583 v 0.2645833 h 0.264583 z m -0.264583,0.2645833 h -0.264584 v 0.2645835 h 0.264584 z m -0.264584,0.2645835 h -0.264583 v 0.26458325 0.2645833 0.2645834 h 0.264583 v -0.2645834 -0.2645833 z"
       inkscape:label="7" /><path
       id="rect41"
       style="fill:#000000;fill-rule:evenodd;stroke-width:0.79375;stroke-linecap:round;paint-order:markers fill stroke"
       d="m 39.422915,-2.1166667 v 0.2645834 h 0.793749 v -0.2645834 z m 0.793749,0.2645834 v 0.5291666 h 0.264584 v -0.5291666 z m 0,0.5291666 h -0.793749 v 0.2645835 h 0.793749 z m 0,0.2645835 v 0.52916655 h 0.264584 V -1.0583332 Z m 0,0.52916655 h -0.793749 v 0.2645834 h 0.793749 z m -0.793749,0 V -1.0583332 h -0.264584 v 0.52916655 z m 0,-0.79375005 v -0.5291666 h -0.264584 v 0.5291666 z"
       inkscape:label="8" /><path
       id="rect47"
       style="fill:#000000;fill-rule:evenodd;stroke-width:0.79375;stroke-linecap:round;paint-order:markers fill stroke"
       d="m 41.010415,-2.1166667 v 0.2645834 h 0.79375 v -0.2645834 z m 0.79375,0.2645834 v 0.5291666 h -0.79375 v 0.2645835 h 0.79375 v 0.26458325 h 0.264583 V -1.8520833 Z m 0,1.05833335 h -0.264583 v 0.2645833 h 0.264583 z m -0.264583,0.2645833 h -0.529167 v 0.2645834 h 0.529167 z M 41.010415,-1.3229167 v -0.5291666 h -0.264583 v 0.5291666 z"
       inkscape:label="9" /><path
       id="rect52"
       style="fill:#000000;fill-rule:evenodd;stroke-width:0.79375;stroke-linecap:round;paint-order:markers fill stroke"
       d="M 2.9104166,2.6458329 V 2.9104163 H 3.7041665 V 2.6458329 Z M 3.7041665,2.9104163 V 3.1749996 H 2.9104166 V 3.4395829 H 3.7041665 V 3.7041662 H 2.9104166 V 3.9687496 H 3.7041665 3.9687498 V 2.9104163 Z M 2.9104166,3.7041662 V 3.4395829 H 2.6458332 v 0.2645833 z" /><path
       id="rect56"
       style="fill:#000000;fill-rule:evenodd;stroke-width:0.79375;stroke-linecap:round;paint-order:markers fill stroke"
       d="m 26.458332,2.6458332 v 1.3229167 h 0.264583 V 3.4395832 h 0.79375 V 3.1749999 h -0.79375 V 2.9104166 h 0.79375 V 2.6458332 h -0.79375 z m 1.058333,0.2645834 v 0.2645833 h 0.264583 V 2.9104166 Z"
       inkscape:label="p" /><path
       id="rect59"
       style="fill:#000000;fill-rule:evenodd;stroke-width:0.79375;stroke-linecap:round;paint-order:markers fill stroke"
       d="m 25.135415,2.6458332 v 0.2645834 h 0.79375 V 2.6458332 Z m 0.79375,0.2645834 v 0.7937499 h 0.264584 V 2.9104166 Z m 0,0.7937499 h -0.79375 v 0.2645834 h 0.79375 z m -0.79375,0 V 2.9104166 h -0.264583 v 0.7937499 z"
       inkscape:label="o" /><path
       id="rect62"
       style="fill:#000000;fill-rule:evenodd;stroke-width:0.79375;stroke-linecap:round;paint-order:markers fill stroke"
       d="m 42.597916,-1.8520832 v 0.5291666 h 0.529166 v -0.5291666 z m 0,0.7937501 v 0.52916655 h 0.529166 V -1.0583331 Z"
       inkscape:label=":" /><path
       id="rect65"
       style="fill:#000000;fill-rule:evenodd;stroke-width:0.79375;stroke-linecap:round;paint-order:markers fill stroke"
       d="m 4.2333332,2.1166663 v 1.8520833 h 0.2645833 0.79375 V 3.7041662 h -0.79375 V 3.1749996 H 4.7624998 V 2.9104163 H 4.4979165 v -0.79375 z m 0.5291666,0.79375 H 5.2916665 V 2.6458329 H 4.7624998 Z m 0.5291667,0 V 3.7041662 H 5.5562498 V 2.9104163 Z"
       inkscape:label="b" /><path
       id="rect65-8"
       style="fill:#000000;fill-rule:evenodd;stroke-width:0.79375;stroke-linecap:round;paint-order:markers fill stroke"
       d="M 8.7312497,2.1166664 V 3.9687497 H 8.4666664 7.6729164 V 3.7041663 h 0.79375 V 3.1749997 H 8.2020831 V 2.9104164 h 0.2645833 v -0.79375 z m -0.5291666,0.79375 H 7.6729164 V 2.645833 h 0.5291667 z m -0.5291667,0 V 3.7041663 H 7.4083331 V 2.9104164 Z"
       inkscape:label="d" /><path
       id="rect69"
       style="fill:#000000;fill-rule:evenodd;stroke-width:0.79375;stroke-linecap:round;paint-order:markers fill stroke"
       d="m 6.0854164,2.6458331 v 0.2645833 h 0.79375 V 2.6458331 Z m 0,0.2645833 H 5.8208331 v 0.7937499 h 0.2645833 z m 0,0.7937499 v 0.2645834 h 0.79375 V 3.7041663 Z m 0.79375,0 H 7.1437497 V 3.439583 H 6.8791664 Z"
       inkscape:label="c" /><path
       id="rect81"
       style="fill:#000000;fill-rule:evenodd;stroke-width:0.79375;stroke-linecap:round;paint-order:markers fill stroke"
       d="M 9.2604163,2.645833 V 2.9104164 H 10.054166 V 2.645833 Z M 10.054166,2.9104164 V 3.1749997 H 9.2604163 V 2.9104164 H 8.995833 V 3.1749997 3.439583 3.7041663 H 9.2604163 V 3.439583 H 10.31875 V 3.1749997 2.9104164 Z M 9.2604163,3.7041663 V 3.9687497 H 10.054166 V 3.7041663 Z"
       inkscape:label="e" /><path
       id="rect85"
       style="fill:#000000;fill-rule:evenodd;stroke-width:0.79375;stroke-linecap:round;paint-order:markers fill stroke"
       d="m 11.1125,2.1166664 v 0.2645833 h 0.529166 V 2.1166664 Z m 0.529166,0.2645833 V 2.645833 H 11.90625 V 2.3812497 Z m -0.529166,0 h -0.264584 v 0.5291666 h -0.264583 v 0.2645834 h 0.264583 v 0.79375 H 11.1125 v -0.79375 h 0.264583 V 2.9104163 H 11.1125 Z"
       inkscape:label="f" /><path
       id="rect88"
       style="fill:#000000;fill-rule:evenodd;stroke-width:0.79375;stroke-linecap:round;paint-order:markers fill stroke"
       d="M 12.435416,2.3812497 V 2.645833 h 0.79375 v 0.5291667 h -0.79375 V 3.439583 h 0.79375 v 0.2645833 h 0.264583 V 2.645833 2.3812497 Z m 0.79375,1.3229166 h -0.79375 v 0.2645834 h 0.79375 z M 12.435416,3.1749997 V 2.645833 h -0.264583 v 0.5291667 z"
       inkscape:label="g" /><path
       id="rect93"
       style="fill:#000000;fill-rule:evenodd;stroke-width:0.79375;stroke-linecap:round;paint-order:markers fill stroke"
       d="m 13.758333,2.1166663 v 1.8520833 h 0.264583 v -0.79375 H 14.2875 V 2.9104163 h -0.264584 v -0.79375 z m 0.529167,0.79375 h 0.529166 V 2.6458329 H 14.2875 Z m 0.529166,0 V 3.9687496 H 15.08125 V 2.9104163 Z"
       inkscape:label="h" /><path
       id="rect93-8"
       style="fill:#000000;fill-rule:evenodd;stroke-width:0.79375;stroke-linecap:round;paint-order:markers fill stroke"
       d="m 23.283331,2.6458332 v 1.3229167 h 0.264583 v -0.79375 h 0.264584 V 2.9104165 H 23.547914 V 2.6458332 Z m 0.529167,0.2645833 h 0.529166 V 2.6458331 h -0.529166 z m 0.529166,0 v 1.0583334 h 0.264584 V 2.9104165 Z"
       sodipodi:nodetypes="ccccccccccccccccccc"
       inkscape:label="n" /><path
       id="rect93-8-7"
       style="fill:#000000;fill-rule:evenodd;stroke-width:0.79375;stroke-linecap:round;paint-order:markers fill stroke"
       d="m 35.718749,3.9687503 v -1.322917 h -0.264583 v 0.79375 h -0.264584 v 0.264584 h 0.264584 v 0.264583 z m -0.529167,-0.264583 h -0.529166 v 0.264583 h 0.529166 z m -0.529166,0 v -1.058334 h -0.264584 v 1.058334 z"
       sodipodi:nodetypes="ccccccccccccccccccc"
       inkscape:label="u" /><path
       id="rect93-8-9"
       style="fill:#000000;fill-rule:evenodd;stroke-width:0.79375;stroke-linecap:round;paint-order:markers fill stroke"
       d="m 29.633332,2.6458332 v 1.3229166 h 0.264583 v -0.79375 h 0.264584 V 2.9104165 H 29.897915 V 2.6458332 Z m 0.529167,0.2645833 h 0.529166 V 2.6458331 h -0.529166 z m 0.529166,0 v 0.2645834 h 0.264584 V 2.9104165 Z"
       sodipodi:nodetypes="ccccccccccccccccccc"
       inkscape:label="r" /><path
       id="rect97"
       style="fill:#000000;fill-rule:evenodd;stroke-width:0.79375;stroke-linecap:round;paint-order:markers fill stroke"
       d="m 15.874999,2.1166664 v 0.2645833 h 0.264584 V 2.1166664 Z M 15.610416,2.645833 v 0.2645833 h 0.264583 v 0.79375 h -0.264583 v 0.2645834 h 0.79375 V 3.7041663 H 16.139583 V 2.9104163 2.645833 Z"
       inkscape:label="i" /><path
       id="rect101"
       style="fill:#000000;fill-rule:evenodd;stroke-width:0.79375;stroke-linecap:round;paint-order:markers fill stroke"
       d="m 17.727082,2.1166665 v 0.2645833 h 0.264584 V 2.1166665 Z m -0.264583,0.5291666 v 0.2645834 h 0.264583 v 0.7937499 h 0.264584 V 2.9104165 2.6458331 h -0.264584 z m 0.264583,1.0583333 h -0.529166 v 0.2645834 h 0.529166 z m -0.529166,0 V 3.4395831 h -0.264584 v 0.2645833 z"
       inkscape:label="j" /><path
       id="rect106"
       style="fill:#000000;fill-rule:evenodd;stroke-width:0.79375;stroke-linecap:round;paint-order:markers fill stroke"
       d="m 18.520832,2.1166665 v 1.8520833 h 0.264584 V 3.4395831 h 0.264583 V 3.1749998 H 18.785416 V 2.1166665 Z m 0.529167,1.0583333 h 0.264583 V 2.9104164 h -0.264583 z m 0.264583,-0.2645834 h 0.264584 V 2.6458331 h -0.264584 z m -0.264583,0.5291667 v 0.2645833 h 0.264583 V 3.4395831 Z m 0.264583,0.2645833 v 0.2645834 h 0.264584 V 3.7041664 Z"
       inkscape:label="k" /><path
       id="rect113"
       style="fill:#000000;fill-rule:evenodd;stroke-width:0.79375;stroke-linecap:round;paint-order:markers fill stroke"
       d="m 20.372916,2.1166666 v 0.2645833 h 0.264583 v 1.3229166 h -0.264583 v 0.2645834 h 0.79375 V 3.7041665 H 20.902082 V 2.3812499 2.1166666 Z"
       inkscape:label="l" /><path
       id="rect116"
       style="fill:#000000;fill-rule:evenodd;stroke-width:0.79375;stroke-linecap:round;paint-order:markers fill stroke"
       d="m 21.695833,2.6458332 v 1.3229167 h 0.264583 V 2.9104165 H 22.225 V 2.6458332 H 21.960416 Z M 22.225,2.9104165 v 0.5291667 h 0.264583 V 2.9104165 Z m 0.264583,0 h 0.264583 V 2.6458332 h -0.264583 z m 0.264583,0 V 3.9687499 H 23.01875 V 2.9104165 Z"
       inkscape:label="m" /><path
       id="rect116-3"
       style="fill:#000000;fill-rule:evenodd;stroke-width:0.79375;stroke-linecap:round;paint-order:markers fill stroke"
       d="m 38.629165,3.7041665 h 0.264583 V 2.6458327 h -0.264583 v 1.058334 h -0.264584 v 0.264583 h 0.264584 z m -0.264584,2e-7 v -0.529167 h -0.264583 v 0.529167 z m -0.264583,0 h -0.264583 v 0.264583 h 0.264583 z m -0.264583,0 v -1.058334 h -0.264584 v 1.058334 z"
       sodipodi:nodetypes="cccccccccccccccccccccccc"
       inkscape:label="w" /><path
       id="rect129"
       style="fill:#000000;fill-rule:evenodd;stroke-width:0.79375;stroke-linecap:round;paint-order:markers fill stroke"
       d="m 28.310416,2.6458332 v 0.2645834 h 0.529166 V 2.6458332 Z m 0.529166,0.2645834 v 0.2645833 h -0.529166 v 0.2645833 h 0.529166 0.264584 v 0.5291667 h 0.264583 V 2.6458332 H 29.104166 V 2.9104166 Z M 28.310416,3.1749999 V 2.9104166 h -0.264584 v 0.2645833 z"
       inkscape:label="q" /><path
       id="rect137"
       style="fill:#000000;fill-rule:evenodd;stroke-width:0.79375;stroke-linecap:round;paint-order:markers fill stroke"
       d="m 31.485415,2.6458332 v 0.2645833 h 0.79375 V 2.6458332 Z m 0,0.2645833 h -0.264584 v 0.2645833 h 0.264584 z m 0,0.2645833 v 0.2645833 h 0.79375 V 3.1749998 Z m 0.79375,0.2645833 v 0.2645833 h 0.264583 V 3.4395831 Z m 0,0.2645833 h -1.058334 v 0.2645834 h 1.058334 z"
       inkscape:label="s" /><path
       id="rect141"
       style="fill:#000000;fill-rule:evenodd;stroke-width:0.79375;stroke-linecap:round;paint-order:markers fill stroke"
       d="m 33.072915,2.1166666 v 0.5291667 h -0.264583 v 0.2645833 h 0.264583 v 0.7937499 h 0.264583 V 2.9104166 h 0.264584 V 2.6458333 H 33.337498 V 2.1166666 Z m 0.264583,1.5874999 v 0.2645834 h 0.529167 V 3.7041665 Z m 0.529167,0 h 0.264583 V 3.4395832 h -0.264583 z"
       inkscape:label="t" /><path
       id="rect146"
       style="fill:#000000;fill-rule:evenodd;stroke-width:0.79375;stroke-linecap:round;paint-order:markers fill stroke"
       d="m 35.983332,2.6458332 v 0.79375 h 0.264583 v -0.79375 z m 0.264583,0.79375 v 0.2645833 h 0.264583 V 3.4395832 Z m 0.264583,0.2645833 v 0.2645834 h 0.264584 V 3.7041665 Z m 0.264584,0 h 0.264583 V 3.4395832 h -0.264583 z m 0.264583,-0.2645833 h 0.264583 v -0.79375 h -0.264583 z"
       inkscape:label="v" /><path
       id="rect146-9"
       style="fill:#000000;fill-rule:evenodd;stroke-width:0.79375;stroke-linecap:round;paint-order:markers fill stroke"
       d="M 35.983333,-3.0000001e-8 35.983332,1.3229166 h 0.264583 L 36.247916,-3.0000001e-8 Z M 36.247915,1.3229166 v 0.2645833 h 0.264583 V 1.3229166 Z m 0.264583,0.2645833 v 0.2645834 h 0.264584 V 1.5874999 Z m 0.264584,0 h 0.264583 V 1.3229166 h -0.264583 z m 0.264583,-0.2645833 h 0.264583 l 1e-6,-1.322916630000001 h -0.264583 z"
       sodipodi:nodetypes="ccccccccccccccccccccccccc"
       inkscape:label="V" /><path
       id="rect160"
       style="fill:#000000;fill-rule:evenodd;stroke-width:0.79375;stroke-linecap:round;paint-order:markers fill stroke"
       d="m 39.158332,2.6458332 v 0.2645834 h 0.264583 V 2.6458332 Z m 0.264583,0.2645834 v 0.2645833 h 0.264583 V 2.9104166 Z m 0.264583,0.2645833 v 0.2645833 h 0.264584 V 3.1749999 Z m 0.264584,0 h 0.264583 V 2.9104166 h -0.264583 z m 0.264583,-0.2645833 h 0.264583 V 2.6458332 h -0.264583 z m -0.264583,0.5291666 v 0.2645833 h 0.264583 V 3.4395832 Z m 0.264583,0.2645833 v 0.2645834 h 0.264583 V 3.7041665 Z M 39.687498,3.4395832 h -0.264583 v 0.2645833 h 0.264583 z m -0.264583,0.2645833 h -0.264583 v 0.2645834 h 0.264583 z"
       inkscape:label="x" /><path
       id="rect168"
       style="fill:#000000;fill-rule:evenodd;stroke-width:0.79375;stroke-linecap:round;paint-order:markers fill stroke"
       d="m 40.745831,2.6458333 v 0.5291666 h 0.264584 V 2.6458333 Z m 0.264584,0.5291666 v 0.2645833 h 0.79375 v 0.2645833 h 0.264583 V 2.6458333 h -0.264583 v 0.5291666 z m 0.79375,0.5291666 h -0.79375 v 0.2645834 h 0.79375 z"
       inkscape:label="y" /><path
       id="rect171"
       style="fill:#000000;fill-rule:evenodd;stroke-width:0.79375;stroke-linecap:round;paint-order:markers fill stroke"
       d="m 42.333331,2.6458333 v 0.2645833 h 0.79375 V 3.175 h 0.264583 V 2.9104166 h 0.264584 V 2.6458333 Z M 43.127081,3.175 h -0.264583 v 0.2645833 h 0.264583 z M 42.862498,3.4395833 H 42.597914 V 3.7041666 H 42.333331 V 3.96875 h 1.322917 V 3.7041666 h -0.79375 z"
       inkscape:label="z" /><path
       id="rect175"
       style="fill:#000000;fill-rule:evenodd;stroke-width:0.79375;stroke-linecap:round;paint-order:markers fill stroke"
       d="m 44.714581,2.1166666 v 0.2645833 h 0.264584 V 2.1166666 Z m 0,0.2645833 h -0.264583 v 0.5291667 h 0.264583 z m -0.264583,0.5291667 h -0.264583 v 0.2645833 h 0.264583 z m 0,0.2645833 v 0.5291666 h 0.264583 V 3.1749999 Z m 0.264583,0.5291666 v 0.2645834 h 0.264584 V 3.7041665 Z"
       inkscape:label="{" /><path
       id="path179"
       style="fill:#000000;fill-rule:evenodd;stroke-width:0.79375;stroke-linecap:round;paint-order:markers fill stroke"
       d="M 47.624998,2.1166666 V 2.3812499 H 47.360415 V 2.1166666 Z m 0,0.2645833 h 0.264583 v 0.5291666 h -0.264583 z m 0.264583,0.5291666 h 0.264584 v 0.2645834 h -0.264584 z m 0,0.2645834 V 3.7041665 H 47.624998 V 3.1749999 Z M 47.624998,3.7041665 V 3.9687499 H 47.360415 V 3.7041665 Z"
       inkscape:label="}" /><rect
       style="fill:#000000;fill-rule:evenodd;stroke-width:0.79375;stroke-linecap:round;paint-order:markers fill stroke"
       id="rect181"
       width="0.26458332"
       height="1.8520831"
       x="46.037498"
       y="2.1166663"
       inkscape:label="|" /><path
       id="rect188"
       style="fill:#000000;fill-rule:evenodd;stroke-width:0.79375;stroke-linecap:round;paint-order:markers fill stroke"
       d="m 49.212498,2.38125 v 0.2645833 h 0.264583 V 2.38125 Z m 0.264583,0.2645833 v 0.2645834 h -0.79375 V 3.175 h 0.79375 v 0.2645833 h 0.264584 V 3.175 h 0.264583 V 2.9104167 H 49.741665 V 2.6458333 Z m 0,0.79375 h -0.264583 v 0.2645833 h 0.264583 z"
       inkscape:label="Forward Arrow" /><path
       id="path192"
       style="fill:#000000;fill-rule:evenodd;stroke-width:0.79375;stroke-linecap:round;paint-order:markers fill stroke"
       d="M 51.064581,2.3812499 V 2.6458332 H 50.799998 V 2.3812499 Z m -0.264583,0.2645833 v 0.2645834 h 0.79375 v 0.2645833 h -0.79375 V 3.4395832 H 50.535414 V 3.1749999 H 50.270831 V 2.9104166 h 0.264583 V 2.6458332 Z m 0,0.79375 h 0.264583 v 0.2645833 h -0.264583 z"
       inkscape:label="BackArrow" /><path
       id="rect195"
       style="fill:#000000;fill-rule:evenodd;stroke-width:0.79375;stroke-linecap:round;paint-order:markers fill stroke"
       d="m 3.1749999,-2.1166666 v 1.0583333 h 0.2645833 v -1.0583333 z m 0,1.58749997 v 0.2645833 h 0.2645833 v -0.2645833 z"
       inkscape:label="!" /><path
       id="rect196"
       style="fill:#000000;fill-rule:evenodd;stroke-width:0.79375;stroke-linecap:round;paint-order:markers fill stroke"
       d="M 4.4979165 -2.1166666 L 4.4979165 -1.5874999 L 4.7624998 -1.5874999 L 4.7624998 -2.1166666 L 4.4979165 -2.1166666 z M 5.0270832 -2.1166666 L 5.0270832 -1.5874999 L 5.2916665 -1.5874999 L 5.2916665 -2.1166666 L 5.0270832 -2.1166666 z "
       inkscape:label="&quot;" /><path
       id="rect197"
       style="fill:#000000;fill-rule:evenodd;stroke-width:0.79375;stroke-linecap:round;paint-order:markers fill stroke"
       d="M 6.0854165 -2.1166666 L 6.0854165 -1.5874999 L 5.8208331 -1.5874999 L 5.8208331 -1.3229166 L 6.0854165 -1.3229166 L 6.0854165 -1.0583333 L 5.8208331 -1.0583333 L 5.8208331 -0.79374997 L 6.0854165 -0.79374997 L 6.0854165 -0.26458332 L 6.3499998 -0.26458332 L 6.3499998 -0.79374997 L 6.6145831 -0.79374997 L 6.6145831 -0.26458332 L 6.8791664 -0.26458332 L 6.8791664 -0.79374997 L 7.1437498 -0.79374997 L 7.1437498 -1.0583333 L 6.8791664 -1.0583333 L 6.8791664 -1.3229166 L 7.1437498 -1.3229166 L 7.1437498 -1.5874999 L 6.8791664 -1.5874999 L 6.8791664 -2.1166666 L 6.6145831 -2.1166666 L 6.6145831 -1.5874999 L 6.3499998 -1.5874999 L 6.3499998 -2.1166666 L 6.0854165 -2.1166666 z M 6.3499998 -1.3229166 L 6.6145831 -1.3229166 L 6.6145831 -1.0583333 L 6.3499998 -1.0583333 L 6.3499998 -1.3229166 z "
       inkscape:label="#" /><path
       id="rect200"
       style="fill:#000000;fill-rule:evenodd;stroke-width:0.79375;stroke-linecap:round;paint-order:markers fill stroke"
       d="M 7.9374997 -2.1166666 L 7.9374997 -1.8520833 L 7.6729164 -1.8520833 L 7.6729164 -1.5874999 L 7.9374997 -1.5874999 L 7.9374997 -1.3229166 L 7.6729164 -1.3229166 L 7.6729164 -1.0583333 L 7.9374997 -1.0583333 L 7.9374997 -0.79374997 L 7.4083331 -0.79374997 L 7.4083331 -0.52916665 L 7.9374997 -0.52916665 L 7.9374997 -0.26458332 L 8.2020831 -0.26458332 L 8.2020831 -0.52916665 L 8.4666664 -0.52916665 L 8.4666664 -0.79374997 L 8.2020831 -0.79374997 L 8.2020831 -1.0583333 L 8.4666664 -1.0583333 L 8.4666664 -1.3229166 L 8.2020831 -1.3229166 L 8.2020831 -1.5874999 L 8.7312497 -1.5874999 L 8.7312497 -1.8520833 L 8.2020831 -1.8520833 L 8.2020831 -2.1166666 L 7.9374997 -2.1166666 z M 8.4666664 -1.0583333 L 8.4666664 -0.79374997 L 8.7312497 -0.79374997 L 8.7312497 -1.0583333 L 8.4666664 -1.0583333 z M 7.6729164 -1.3229166 L 7.6729164 -1.5874999 L 7.4083331 -1.5874999 L 7.4083331 -1.3229166 L 7.6729164 -1.3229166 z "
       inkscape:label="$" /><path
       id="rect205"
       style="fill:#000000;fill-rule:evenodd;stroke-width:0.79375;stroke-linecap:round;paint-order:markers fill stroke"
       d="M 8.995833 -2.1166666 L 8.995833 -1.5874999 L 9.5249997 -1.5874999 L 9.5249997 -2.1166666 L 8.995833 -2.1166666 z M 10.054166 -1.8520833 L 10.054166 -1.5874999 L 10.31875 -1.5874999 L 10.31875 -1.8520833 L 10.054166 -1.8520833 z M 10.054166 -1.5874999 L 9.789583 -1.5874999 L 9.789583 -1.3229166 L 10.054166 -1.3229166 L 10.054166 -1.5874999 z M 9.789583 -1.3229166 L 9.5249997 -1.3229166 L 9.5249997 -1.0583333 L 9.789583 -1.0583333 L 9.789583 -1.3229166 z M 9.5249997 -1.0583333 L 9.2604163 -1.0583333 L 9.2604163 -0.79374997 L 9.5249997 -0.79374997 L 9.5249997 -1.0583333 z M 9.2604163 -0.79374997 L 8.995833 -0.79374997 L 8.995833 -0.52916665 L 9.2604163 -0.52916665 L 9.2604163 -0.79374997 z M 9.789583 -0.79374997 L 9.789583 -0.26458332 L 10.31875 -0.26458332 L 10.31875 -0.79374997 L 9.789583 -0.79374997 z "
       inkscape:label="%" /><path
       id="rect211"
       style="fill:#000000;fill-rule:evenodd;stroke-width:0.79375;stroke-linecap:round;paint-order:markers fill stroke"
       d="M 10.847916 -2.1166666 L 10.847916 -1.8520833 L 11.377083 -1.8520833 L 11.377083 -2.1166666 L 10.847916 -2.1166666 z M 11.377083 -1.8520833 L 11.377083 -1.5874999 L 11.641666 -1.5874999 L 11.641666 -1.8520833 L 11.377083 -1.8520833 z M 11.377083 -1.5874999 L 11.1125 -1.5874999 L 11.1125 -1.3229166 L 11.377083 -1.3229166 L 11.377083 -1.5874999 z M 11.1125 -1.3229166 L 10.847916 -1.3229166 L 10.847916 -1.0583333 L 11.1125 -1.0583333 L 11.1125 -1.3229166 z M 11.1125 -1.0583333 L 11.1125 -0.79374997 L 11.377083 -0.79374997 L 11.377083 -1.0583333 L 11.1125 -1.0583333 z M 11.377083 -0.79374997 L 11.377083 -0.52916665 L 11.641666 -0.52916665 L 11.641666 -0.79374997 L 11.377083 -0.79374997 z M 11.641666 -0.79374997 L 11.90625 -0.79374997 L 11.90625 -1.0583333 L 11.641666 -1.0583333 L 11.641666 -0.79374997 z M 11.641666 -0.52916665 L 11.641666 -0.26458332 L 11.90625 -0.26458332 L 11.90625 -0.52916665 L 11.641666 -0.52916665 z M 11.377083 -0.52916665 L 10.847916 -0.52916665 L 10.847916 -0.26458332 L 11.377083 -0.26458332 L 11.377083 -0.52916665 z M 10.847916 -0.52916665 L 10.847916 -1.0583333 L 10.583333 -1.0583333 L 10.583333 -0.52916665 L 10.847916 -0.52916665 z M 10.847916 -1.3229166 L 10.847916 -1.8520833 L 10.583333 -1.8520833 L 10.583333 -1.3229166 L 10.847916 -1.3229166 z "
       inkscape:label="&amp;" /><path
       id="rect221"
       style="fill:#000000;fill-rule:evenodd;stroke-width:0.79375;stroke-linecap:round;paint-order:markers fill stroke"
       d="m 12.435416,-2.1166666 v 0.2645833 H 12.7 v 0.2645834 h 0.264583 V -1.8520833 -2.1166666 Z M 12.7,-1.5874999 h -0.264584 v 0.2645833 H 12.7 Z"
       inkscape:label="'" /><path
       id="rect221-3"
       style="fill:#000000;fill-rule:evenodd;stroke-width:0.79375;stroke-linecap:round;paint-order:markers fill stroke"
       d="m 20.372916,-1.0583328 v 0.26458399 H 20.6375 v 0.264583 h 0.264583 v -0.264583 -0.26458399 z m 0.264584,0.52916699 h -0.264584 v 0.264582 H 20.6375 Z"
       inkscape:label="," /><path
       id="rect221-3-2"
       style="fill:#000000;fill-rule:evenodd;stroke-width:0.79375;stroke-linecap:round;paint-order:markers fill stroke"
       d="M 44.185415 -1.8520833 L 44.185415 -1.3229166 L 44.714582 -1.3229166 L 44.714582 -1.8520833 L 44.185415 -1.8520833 z M 44.185415 -1.0583333 L 44.185415 -0.79374997 L 44.449998 -0.79374997 L 44.449998 -0.52916665 L 44.714582 -0.52916665 L 44.714582 -0.79374997 L 44.714582 -1.0583333 L 44.185415 -1.0583333 z M 44.449998 -0.52916665 L 44.185415 -0.52916665 L 44.185415 -0.26458332 L 44.449998 -0.26458332 L 44.449998 -0.52916665 z "
       inkscape:label=";" /><path
       id="rect223"
       style="fill:#000000;fill-rule:evenodd;stroke-width:0.79375;stroke-linecap:round;paint-order:markers fill stroke"
       d="M 14.552083 -2.1166666 L 14.552083 -1.8520833 L 14.816666 -1.8520833 L 14.816666 -2.1166666 L 14.552083 -2.1166666 z M 14.552083 -1.8520833 L 14.2875 -1.8520833 L 14.2875 -1.5874999 L 14.552083 -1.5874999 L 14.552083 -1.8520833 z M 14.2875 -1.5874999 L 14.022916 -1.5874999 L 14.022916 -0.79374997 L 14.2875 -0.79374997 L 14.2875 -1.5874999 z M 14.2875 -0.79374997 L 14.2875 -0.52916665 L 14.552083 -0.52916665 L 14.552083 -0.79374997 L 14.2875 -0.79374997 z M 14.552083 -0.52916665 L 14.552083 -0.26458332 L 14.816666 -0.26458332 L 14.816666 -0.52916665 L 14.552083 -0.52916665 z "
       inkscape:label="(" /><path
       id="path227"
       style="fill:#000000;fill-rule:evenodd;stroke-width:0.79375;stroke-linecap:round;paint-order:markers fill stroke"
       d="m 15.874999,-2.1166665 v 0.2645833 h -0.264583 v -0.2645833 z m 0,0.2645833 h 0.264583 v 0.2645834 h -0.264583 z m 0.264583,0.2645834 h 0.264584 v 0.79374988 h -0.264584 z m 0,0.79374988 v 0.26458332 h -0.264583 v -0.26458332 z m -0.264583,0.26458332 v 0.26458333 H 15.610416 V -0.5291666 Z"
       inkscape:label=")" /><path
       id="rect227"
       style="fill:#000000;fill-rule:evenodd;stroke-width:0.79375;stroke-linecap:round;paint-order:markers fill stroke"
       d="M 17.462499 -1.8520833 L 17.462499 -1.3229166 L 17.197916 -1.3229166 L 17.197916 -1.0583333 L 17.462499 -1.0583333 L 17.462499 -0.52916665 L 17.727083 -0.52916665 L 17.727083 -1.0583333 L 17.991666 -1.0583333 L 17.991666 -1.3229166 L 17.727083 -1.3229166 L 17.727083 -1.8520833 L 17.462499 -1.8520833 z M 17.991666 -1.3229166 L 18.256249 -1.3229166 L 18.256249 -1.5874999 L 17.991666 -1.5874999 L 17.991666 -1.3229166 z M 17.991666 -1.0583333 L 17.991666 -0.79374997 L 18.256249 -0.79374997 L 18.256249 -1.0583333 L 17.991666 -1.0583333 z M 17.197916 -1.0583333 L 16.933333 -1.0583333 L 16.933333 -0.79374997 L 17.197916 -0.79374997 L 17.197916 -1.0583333 z M 17.197916 -1.3229166 L 17.197916 -1.5874999 L 16.933333 -1.5874999 L 16.933333 -1.3229166 L 17.197916 -1.3229166 z "
       inkscape:label="*" /><path
       id="rect234"
       style="fill:#000000;fill-rule:evenodd;stroke-width:0.79375;stroke-linecap:round;paint-order:markers fill stroke"
       d="M 19.049999 -1.8520833 L 19.049999 -1.3229166 L 18.520833 -1.3229166 L 18.520833 -1.0583333 L 19.049999 -1.0583333 L 19.049999 -0.52916665 L 19.314583 -0.52916665 L 19.314583 -1.0583333 L 19.843749 -1.0583333 L 19.843749 -1.3229166 L 19.314583 -1.3229166 L 19.314583 -1.8520833 L 19.049999 -1.8520833 z "
       inkscape:label="+" /><rect
       style="fill:#000000;fill-rule:evenodd;stroke-width:0.79375;stroke-linecap:round;paint-order:markers fill stroke"
       id="rect235"
       width="1.3229166"
       height="0.26458329"
       x="21.695831"
       y="-1.3229166"
       inkscape:label="-" /><rect
       style="fill:#000000;fill-rule:evenodd;stroke-width:0.79375;stroke-linecap:round;paint-order:markers fill stroke"
       id="rect236"
       width="0.52916664"
       height="0.52916658"
       x="23.547916"
       y="-0.79374999"
       inkscape:label="." /><path
       id="rect237"
       style="fill:#000000;fill-rule:evenodd;stroke-width:0.79375;stroke-linecap:round;paint-order:markers fill stroke"
       d="M 25.929166 -1.8520833 L 25.929166 -1.5874999 L 26.193749 -1.5874999 L 26.193749 -1.8520833 L 25.929166 -1.8520833 z M 25.929166 -1.5874999 L 25.664582 -1.5874999 L 25.664582 -1.3229166 L 25.929166 -1.3229166 L 25.929166 -1.5874999 z M 25.664582 -1.3229166 L 25.399999 -1.3229166 L 25.399999 -1.0583333 L 25.664582 -1.0583333 L 25.664582 -1.3229166 z M 25.399999 -1.0583333 L 25.135416 -1.0583333 L 25.135416 -0.79374997 L 25.399999 -0.79374997 L 25.399999 -1.0583333 z M 25.135416 -0.79374997 L 24.870832 -0.79374997 L 24.870832 -0.52916665 L 25.135416 -0.52916665 L 25.135416 -0.79374997 z "
       inkscape:label="/" /><path
       id="rect241"
       style="fill:#000000;fill-rule:evenodd;stroke-width:0.79375;stroke-linecap:round;paint-order:markers fill stroke"
       d="M 46.302082 -2.1166666 L 46.302082 -1.8520833 L 46.566665 -1.8520833 L 46.566665 -2.1166666 L 46.302082 -2.1166666 z M 46.302082 -1.8520833 L 46.037498 -1.8520833 L 46.037498 -1.5874999 L 46.302082 -1.5874999 L 46.302082 -1.8520833 z M 46.037498 -1.5874999 L 45.772915 -1.5874999 L 45.772915 -1.3229166 L 46.037498 -1.3229166 L 46.037498 -1.5874999 z M 45.772915 -1.3229166 L 45.508332 -1.3229166 L 45.508332 -1.0583333 L 45.772915 -1.0583333 L 45.772915 -1.3229166 z M 45.772915 -1.0583333 L 45.772915 -0.79374997 L 46.037498 -0.79374997 L 46.037498 -1.0583333 L 45.772915 -1.0583333 z M 46.037498 -0.79374997 L 46.037498 -0.52916665 L 46.302082 -0.52916665 L 46.302082 -0.79374997 L 46.037498 -0.79374997 z M 46.302082 -0.52916665 L 46.302082 -0.26458332 L 46.566665 -0.26458332 L 46.566665 -0.52916665 L 46.302082 -0.52916665 z "
       inkscape:label="&lt;" /><path
       id="rect241-4"
       style="fill:#000000;fill-rule:evenodd;stroke-width:0.79375;stroke-linecap:round;paint-order:markers fill stroke"
       d="m 49.212498,-2.1166666 v 0.2645833 h -0.264583 v -0.2645833 z m 0,0.2645833 h 0.264584 v 0.2645834 h -0.264584 z m 0.264584,0.2645834 h 0.264583 v 0.2645833 h -0.264583 z m 0.264583,0.2645833 h 0.264583 v 0.2645833 h -0.264583 z m 0,0.2645833 v 0.26458337 H 49.477082 V -1.0583333 Z m -0.264583,0.26458337 v 0.26458332 h -0.264584 v -0.26458332 z m -0.264584,0.26458332 v 0.26458333 h -0.264583 v -0.26458333 z"
       inkscape:label="&gt;" /><path
       id="rect247"
       style="fill:#000000;fill-rule:evenodd;stroke-width:0.79375;stroke-linecap:round;paint-order:markers fill stroke"
       d="M 47.095832 -1.5874999 L 47.095832 -1.3229166 L 48.418748 -1.3229166 L 48.418748 -1.5874999 L 47.095832 -1.5874999 z M 47.095832 -1.0583333 L 47.095832 -0.79374997 L 48.418748 -0.79374997 L 48.418748 -1.0583333 L 47.095832 -1.0583333 z "
       inkscape:label="=" /><path
       id="rect248"
       style="fill:#000000;fill-rule:evenodd;stroke-width:0.79375;stroke-linecap:round;paint-order:markers fill stroke"
       d="M 50.535415 -2.1166666 L 50.535415 -1.8520833 L 51.329165 -1.8520833 L 51.329165 -2.1166666 L 50.535415 -2.1166666 z M 51.329165 -1.8520833 L 51.329165 -1.3229166 L 51.593748 -1.3229166 L 51.593748 -1.8520833 L 51.329165 -1.8520833 z M 51.329165 -1.3229166 L 51.064582 -1.3229166 L 51.064582 -1.0583333 L 51.329165 -1.0583333 L 51.329165 -1.3229166 z M 51.064582 -1.0583333 L 50.799998 -1.0583333 L 50.799998 -0.79374997 L 51.064582 -0.79374997 L 51.064582 -1.0583333 z M 50.535415 -1.8520833 L 50.270832 -1.8520833 L 50.270832 -1.5874999 L 50.535415 -1.5874999 L 50.535415 -1.8520833 z M 50.799998 -0.52916665 L 50.799998 -0.26458332 L 51.064582 -0.26458332 L 51.064582 -0.52916665 L 50.799998 -0.52916665 z "
       inkscape:label="?" /><path
       id="rect253"
       style="fill:#000000;fill-rule:evenodd;stroke-width:0.79375;stroke-linecap:round;paint-order:markers fill stroke"
       d="M 52.122915 -2.1166666 L 52.122915 -1.8520833 L 52.916665 -1.8520833 L 52.916665 -2.1166666 L 52.122915 -2.1166666 z M 52.916665 -1.8520833 L 52.916665 -0.52916665 L 52.652082 -0.52916665 L 52.652082 -1.0583333 L 52.652082 -1.3229166 L 52.122915 -1.3229166 L 52.122915 -1.0583333 L 52.387498 -1.0583333 L 52.387498 -0.52916665 L 52.122915 -0.52916665 L 52.122915 -0.26458332 L 52.387498 -0.26458332 L 52.652082 -0.26458332 L 52.916665 -0.26458332 L 53.181248 -0.26458332 L 53.181248 -0.52916665 L 53.181248 -1.8520833 L 52.916665 -1.8520833 z M 52.122915 -0.52916665 L 52.122915 -1.0583333 L 51.858332 -1.0583333 L 51.858332 -0.52916665 L 52.122915 -0.52916665 z M 52.122915 -1.8520833 L 51.858332 -1.8520833 L 51.858332 -1.5874999 L 52.122915 -1.5874999 L 52.122915 -1.8520833 z "
       inkscape:label="@" /><path
       id="rect259"
       style="fill:#000000;fill-rule:evenodd;stroke-width:0.79375;stroke-linecap:round;paint-order:markers fill stroke"
       d="M 2.9104166 0 L 2.9104166 0.26458332 L 3.7041665 0.26458332 L 3.7041665 0 L 2.9104166 0 z M 3.7041665 0.26458332 L 3.7041665 1.0583333 L 2.9104166 1.0583333 L 2.9104166 0.26458332 L 2.6458332 0.26458332 L 2.6458332 1.8520833 L 2.9104166 1.8520833 L 2.9104166 1.3229166 L 3.7041665 1.3229166 L 3.7041665 1.8520833 L 3.9687499 1.8520833 L 3.9687499 0.26458332 L 3.7041665 0.26458332 z "
       inkscape:label="A" /><path
       id="rect262"
       style="fill:#000000;fill-rule:evenodd;stroke-width:0.79375;stroke-linecap:round;paint-order:markers fill stroke"
       d="M 4.2333332 0 L 4.2333332 1.8520833 L 4.4979165 1.8520833 L 5.2916665 1.8520833 L 5.2916665 1.5874999 L 4.4979165 1.5874999 L 4.4979165 1.0583333 L 5.2916665 1.0583333 L 5.2916665 0.79374997 L 4.4979165 0.79374997 L 4.4979165 0.26458332 L 5.2916665 0.26458332 L 5.2916665 0 L 4.4979165 0 L 4.2333332 0 z M 5.2916665 0.26458332 L 5.2916665 0.79374997 L 5.5562498 0.79374997 L 5.5562498 0.26458332 L 5.2916665 0.26458332 z M 5.2916665 1.0583333 L 5.2916665 1.5874999 L 5.5562498 1.5874999 L 5.5562498 1.0583333 L 5.2916665 1.0583333 z "
       inkscape:label="B" /><path
       id="rect267"
       style="fill:#000000;fill-rule:evenodd;stroke-width:0.79375;stroke-linecap:round;paint-order:markers fill stroke"
       d="M 6.0854165 0 L 6.0854165 0.26458332 L 6.8791664 0.26458332 L 6.8791664 0 L 6.0854165 0 z M 6.8791664 0.26458332 L 6.8791664 0.52916665 L 7.1437498 0.52916665 L 7.1437498 0.26458332 L 6.8791664 0.26458332 z M 6.0854165 0.26458332 L 5.8208331 0.26458332 L 5.8208331 1.5874999 L 6.0854165 1.5874999 L 6.0854165 0.26458332 z M 6.0854165 1.5874999 L 6.0854165 1.8520833 L 6.8791664 1.8520833 L 6.8791664 1.5874999 L 6.0854165 1.5874999 z M 6.8791664 1.5874999 L 7.1437498 1.5874999 L 7.1437498 1.3229166 L 6.8791664 1.3229166 L 6.8791664 1.5874999 z "
       inkscape:label="C" /><path
       id="rect272"
       style="fill:#000000;fill-rule:evenodd;stroke-width:0.79375;stroke-linecap:round;paint-order:markers fill stroke"
       d="M 7.4083331 0 L 7.4083331 1.8520833 L 7.6729164 1.8520833 L 8.2020831 1.8520833 L 8.2020831 1.5874999 L 7.6729164 1.5874999 L 7.6729164 0.26458332 L 8.2020831 0.26458332 L 8.2020831 0 L 7.6729164 0 L 7.4083331 0 z M 8.2020831 0.26458332 L 8.2020831 0.52916665 L 8.4666664 0.52916665 L 8.4666664 0.26458332 L 8.2020831 0.26458332 z M 8.4666664 0.52916665 L 8.4666664 1.3229166 L 8.7312497 1.3229166 L 8.7312497 0.52916665 L 8.4666664 0.52916665 z M 8.4666664 1.3229166 L 8.2020831 1.3229166 L 8.2020831 1.5874999 L 8.4666664 1.5874999 L 8.4666664 1.3229166 z "
       inkscape:label="D" /><path
       id="rect277"
       style="fill:#000000;fill-rule:evenodd;stroke-width:0.79375;stroke-linecap:round;paint-order:markers fill stroke"
       d="M 8.995833 0 L 8.995833 0.26458332 L 8.995833 0.79374997 L 8.995833 1.0583333 L 8.995833 1.5874999 L 8.995833 1.8520833 L 9.2604163 1.8520833 L 10.31875 1.8520833 L 10.31875 1.5874999 L 9.2604163 1.5874999 L 9.2604163 1.0583333 L 10.054166 1.0583333 L 10.054166 0.79374997 L 9.2604163 0.79374997 L 9.2604163 0.26458332 L 10.31875 0.26458332 L 10.31875 0 L 9.2604163 0 L 8.995833 0 z "
       inkscape:label="E" /><path
       id="rect280"
       style="fill:#000000;fill-rule:evenodd;stroke-width:0.79375;stroke-linecap:round;paint-order:markers fill stroke"
       d="M 10.583333 0 L 10.583333 0.26458332 L 10.583333 0.79374997 L 10.583333 1.0583333 L 10.583333 1.8520833 L 10.847916 1.8520833 L 10.847916 1.0583333 L 11.641666 1.0583333 L 11.641666 0.79374997 L 10.847916 0.79374997 L 10.847916 0.26458332 L 11.90625 0.26458332 L 11.90625 0 L 10.847916 0 L 10.583333 0 z "
       inkscape:label="F" /><path
       id="rect282"
       style="fill:#000000;fill-rule:evenodd;stroke-width:0.79375;stroke-linecap:round;paint-order:markers fill stroke"
       d="M 12.435416 0 L 12.435416 0.26458332 L 13.229166 0.26458332 L 13.229166 0 L 12.435416 0 z M 13.229166 0.26458332 L 13.229166 0.52916665 L 13.49375 0.52916665 L 13.49375 0.26458332 L 13.229166 0.26458332 z M 12.435416 0.26458332 L 12.170833 0.26458332 L 12.170833 1.5874999 L 12.435416 1.5874999 L 12.435416 0.26458332 z M 12.435416 1.5874999 L 12.435416 1.8520833 L 13.229166 1.8520833 L 13.49375 1.8520833 L 13.49375 1.0583333 L 13.49375 0.79374997 L 12.964583 0.79374997 L 12.964583 1.0583333 L 13.229166 1.0583333 L 13.229166 1.5874999 L 12.435416 1.5874999 z "
       inkscape:label="G" /><path
       id="rect287"
       style="fill:#000000;fill-rule:evenodd;stroke-width:0.79375;stroke-linecap:round;paint-order:markers fill stroke"
       d="M 13.758333 0 L 13.758333 0.79374997 L 13.758333 1.0583333 L 13.758333 1.8520833 L 14.022916 1.8520833 L 14.022916 1.0583333 L 14.816666 1.0583333 L 14.816666 1.8520833 L 15.081249 1.8520833 L 15.081249 1.0583333 L 15.081249 0.79374997 L 15.081249 0 L 14.816666 0 L 14.816666 0.79374997 L 14.022916 0.79374997 L 14.022916 0 L 13.758333 0 z "
       inkscape:label="H" /><path
       id="rect289"
       style="fill:#000000;fill-rule:evenodd;stroke-width:0.79375;stroke-linecap:round;paint-order:markers fill stroke"
       d="M 15.610416 0 L 15.610416 0.26458332 L 15.874999 0.26458332 L 15.874999 1.5874999 L 15.610416 1.5874999 L 15.610416 1.8520833 L 15.874999 1.8520833 L 16.139583 1.8520833 L 16.404166 1.8520833 L 16.404166 1.5874999 L 16.139583 1.5874999 L 16.139583 0.26458332 L 16.404166 0.26458332 L 16.404166 0 L 15.610416 0 z "
       inkscape:label="I" /><path
       id="rect291"
       style="fill:#000000;fill-rule:evenodd;stroke-width:0.79375;stroke-linecap:round;paint-order:markers fill stroke"
       d="M 17.462499 0 L 17.462499 0.26458332 L 17.727083 0.26458332 L 17.727083 1.5874999 L 17.991666 1.5874999 L 17.991666 0.26458332 L 18.256249 0.26458332 L 18.256249 0 L 17.462499 0 z M 17.727083 1.5874999 L 17.197916 1.5874999 L 17.197916 1.8520833 L 17.727083 1.8520833 L 17.727083 1.5874999 z M 17.197916 1.5874999 L 17.197916 1.3229166 L 16.933333 1.3229166 L 16.933333 1.5874999 L 17.197916 1.5874999 z "
       inkscape:label="J" /><path
       id="rect294"
       style="fill:#000000;fill-rule:evenodd;stroke-width:0.79375;stroke-linecap:round;paint-order:markers fill stroke"
       d="M 18.520833 0 L 18.520833 1.8520833 L 18.785416 1.8520833 L 18.785416 1.0583333 L 19.049999 1.0583333 L 19.049999 0.79374997 L 18.785416 0.79374997 L 18.785416 0 L 18.520833 0 z M 19.049999 0.79374997 L 19.314583 0.79374997 L 19.314583 0.52916665 L 19.049999 0.52916665 L 19.049999 0.79374997 z M 19.314583 0.52916665 L 19.579166 0.52916665 L 19.579166 0.26458332 L 19.314583 0.26458332 L 19.314583 0.52916665 z M 19.579166 0.26458332 L 19.843749 0.26458332 L 19.843749 0 L 19.579166 0 L 19.579166 0.26458332 z M 19.049999 1.0583333 L 19.049999 1.3229166 L 19.314583 1.3229166 L 19.314583 1.0583333 L 19.049999 1.0583333 z M 19.314583 1.3229166 L 19.314583 1.5874999 L 19.579166 1.5874999 L 19.579166 1.3229166 L 19.314583 1.3229166 z M 19.579166 1.5874999 L 19.579166 1.8520833 L 19.843749 1.8520833 L 19.843749 1.5874999 L 19.579166 1.5874999 z "
       inkscape:label="K" /><path
       id="rect301"
       style="fill:#000000;fill-rule:evenodd;stroke-width:0.79375;stroke-linecap:round;paint-order:markers fill stroke"
       d="M 20.108333 0 L 20.108333 1.5874999 L 20.108333 1.8520833 L 20.372916 1.8520833 L 21.431249 1.8520833 L 21.431249 1.5874999 L 20.372916 1.5874999 L 20.372916 0 L 20.108333 0 z "
       inkscape:label="L" /><path
       id="rect302"
       style="fill:#000000;fill-rule:evenodd;stroke-width:0.79375;stroke-linecap:round;paint-order:markers fill stroke"
       d="M 21.695833 0 L 21.695833 1.8520833 L 21.960416 1.8520833 L 21.960416 0.52916665 L 22.224999 0.52916665 L 22.224999 0.26458332 L 21.960416 0.26458332 L 21.960416 0 L 21.695833 0 z M 22.224999 0.52916665 L 22.224999 1.0583333 L 22.489583 1.0583333 L 22.489583 0.52916665 L 22.224999 0.52916665 z M 22.489583 0.52916665 L 22.754166 0.52916665 L 22.754166 1.8520833 L 23.018749 1.8520833 L 23.018749 0 L 22.754166 0 L 22.754166 0.26458332 L 22.489583 0.26458332 L 22.489583 0.52916665 z "
       inkscape:label="M" /><path
       id="rect306"
       style="fill:#000000;fill-rule:evenodd;stroke-width:0.79375;stroke-linecap:round;paint-order:markers fill stroke"
       d="M 23.283333 0 L 23.283333 1.8520833 L 23.547916 1.8520833 L 23.547916 0.79374997 L 23.812499 0.79374997 L 23.812499 0.52916665 L 23.547916 0.52916665 L 23.547916 0 L 23.283333 0 z M 23.812499 0.79374997 L 23.812499 1.0583333 L 24.077083 1.0583333 L 24.077083 0.79374997 L 23.812499 0.79374997 z M 24.077083 1.0583333 L 24.077083 1.3229166 L 24.341666 1.3229166 L 24.341666 1.8520833 L 24.606249 1.8520833 L 24.606249 0 L 24.341666 0 L 24.341666 1.0583333 L 24.077083 1.0583333 z "
       inkscape:label="N" /><path
       id="rect310"
       style="fill:#000000;fill-rule:evenodd;stroke-width:0.79375;stroke-linecap:round;paint-order:markers fill stroke"
       d="M 25.135416 0 L 25.135416 0.26458332 L 25.929166 0.26458332 L 25.929166 0 L 25.135416 0 z M 25.929166 0.26458332 L 25.929166 1.5874999 L 26.193749 1.5874999 L 26.193749 0.26458332 L 25.929166 0.26458332 z M 25.929166 1.5874999 L 25.135416 1.5874999 L 25.135416 1.8520833 L 25.929166 1.8520833 L 25.929166 1.5874999 z M 25.135416 1.5874999 L 25.135416 0.26458332 L 24.870832 0.26458332 L 24.870832 1.5874999 L 25.135416 1.5874999 z "
       inkscape:label="O" /><path
       id="rect313"
       style="fill:#000000;fill-rule:evenodd;stroke-width:0.79375;stroke-linecap:round;paint-order:markers fill stroke"
       d="M 26.458332 0 L 26.458332 0.26458332 L 26.458332 0.79374997 L 26.458332 1.0583333 L 26.458332 1.8520833 L 26.722916 1.8520833 L 26.722916 1.0583333 L 27.516666 1.0583333 L 27.516666 0.79374997 L 26.722916 0.79374997 L 26.722916 0.26458332 L 27.516666 0.26458332 L 27.516666 0 L 26.722916 0 L 26.458332 0 z M 27.516666 0.26458332 L 27.516666 0.79374997 L 27.781249 0.79374997 L 27.781249 0.26458332 L 27.516666 0.26458332 z "
       inkscape:label="P" /><path
       id="rect316"
       style="fill:#000000;fill-rule:evenodd;stroke-width:0.79375;stroke-linecap:round;paint-order:markers fill stroke"
       d="M 28.310416 0 L 28.310416 0.26458332 L 29.104166 0.26458332 L 29.104166 0 L 28.310416 0 z M 29.104166 0.26458332 L 29.104166 1.3229166 L 29.368749 1.3229166 L 29.368749 0.26458332 L 29.104166 0.26458332 z M 29.104166 1.3229166 L 28.839582 1.3229166 L 28.839582 1.5874999 L 29.104166 1.5874999 L 29.104166 1.3229166 z M 29.104166 1.5874999 L 29.104166 1.8520833 L 29.368749 1.8520833 L 29.368749 1.5874999 L 29.104166 1.5874999 z M 28.839582 1.5874999 L 28.310416 1.5874999 L 28.310416 1.8520833 L 28.839582 1.8520833 L 28.839582 1.5874999 z M 28.310416 1.5874999 L 28.310416 0.26458332 L 28.045832 0.26458332 L 28.045832 1.5874999 L 28.310416 1.5874999 z M 28.839582 1.3229166 L 28.839582 1.0583333 L 28.574999 1.0583333 L 28.574999 1.3229166 L 28.839582 1.3229166 z "
       inkscape:label="Q" /><path
       id="rect322"
       style="fill:#000000;fill-rule:evenodd;stroke-width:0.79375;stroke-linecap:round;paint-order:markers fill stroke"
       d="M 29.633332 0 L 29.633332 0.26458332 L 29.633332 0.79374997 L 29.633332 1.0583333 L 29.633332 1.8520833 L 29.897916 1.8520833 L 29.897916 1.0583333 L 30.162499 1.0583333 L 30.162499 1.3229166 L 30.427082 1.3229166 L 30.427082 1.0583333 L 30.691666 1.0583333 L 30.691666 0.79374997 L 29.897916 0.79374997 L 29.897916 0.26458332 L 30.691666 0.26458332 L 30.691666 0 L 29.633332 0 z M 30.691666 0.26458332 L 30.691666 0.79374997 L 30.956249 0.79374997 L 30.956249 0.26458332 L 30.691666 0.26458332 z M 30.427082 1.3229166 L 30.427082 1.5874999 L 30.691666 1.5874999 L 30.691666 1.3229166 L 30.427082 1.3229166 z M 30.691666 1.5874999 L 30.691666 1.8520833 L 30.956249 1.8520833 L 30.956249 1.5874999 L 30.691666 1.5874999 z "
       inkscape:label="R" /><path
       id="rect328"
       style="fill:#000000;fill-rule:evenodd;stroke-width:0.79375;stroke-linecap:round;paint-order:markers fill stroke"
       d="M 31.485416 0 L 31.485416 0.26458332 L 32.543749 0.26458332 L 32.543749 0 L 31.485416 0 z M 31.485416 0.26458332 L 31.220832 0.26458332 L 31.220832 0.79374997 L 31.485416 0.79374997 L 31.485416 0.26458332 z M 31.485416 0.79374997 L 31.485416 1.0583333 L 32.279166 1.0583333 L 32.279166 0.79374997 L 31.485416 0.79374997 z M 32.279166 1.0583333 L 32.279166 1.5874999 L 32.543749 1.5874999 L 32.543749 1.0583333 L 32.279166 1.0583333 z M 32.279166 1.5874999 L 31.220832 1.5874999 L 31.220832 1.8520833 L 32.279166 1.8520833 L 32.279166 1.5874999 z "
       inkscape:label="S" /><path
       id="rect332"
       style="fill:#000000;fill-rule:evenodd;stroke-width:0.79375;stroke-linecap:round;paint-order:markers fill stroke"
       d="M 32.808332 0 L 32.808332 0.26458332 L 33.337499 0.26458332 L 33.337499 1.8520833 L 33.602082 1.8520833 L 33.602082 0.26458332 L 34.131249 0.26458332 L 34.131249 0 L 33.602082 0 L 33.337499 0 L 32.808332 0 z "
       inkscape:label="T" /><path
       id="rect333"
       style="fill:#000000;fill-rule:evenodd;stroke-width:0.79375;stroke-linecap:round;paint-order:markers fill stroke"
       d="M 34.395832 0 L 34.395832 1.5874999 L 34.660415 1.5874999 L 34.660415 0 L 34.395832 0 z M 34.660415 1.5874999 L 34.660415 1.8520833 L 35.454165 1.8520833 L 35.454165 1.5874999 L 34.660415 1.5874999 z M 35.454165 1.5874999 L 35.718749 1.5874999 L 35.718749 0 L 35.454165 0 L 35.454165 1.5874999 z "
       inkscape:label="U" /><path
       id="path335"
       style="fill:#000000;fill-rule:evenodd;stroke-width:0.79375;stroke-linecap:round;paint-order:markers fill stroke"
       d="m 38.629165,1.5875001 h 0.264583 L 38.893749,0 h -0.264583 l -10e-7,1.5875003 h -0.264584 v 0.264583 h 0.264584 z m -0.264584,2e-7 v -0.529167 h -0.264583 v 0.529167 z m -0.264583,0 h -0.264583 v 0.264583 h 0.264583 z m -0.264583,0 L 37.835416,0 h -0.264584 l -1e-6,1.5875003 z"
       sodipodi:nodetypes="cccccccccccccccccccccccc"
       inkscape:label="W" /><path
       id="path336"
       style="fill:#000000;fill-rule:evenodd;stroke-width:0.79375;stroke-linecap:round;paint-order:markers fill stroke"
       d="M 39.158332,-3.0000001e-8 39.158333,0.52916665 h 0.264583 L 39.422915,-3.0000001e-8 Z M 39.422916,0.52916665 v 0.2645833 h 0.264583 v -0.2645833 z m 0.264583,0.2645833 V 1.0583332 h 0.264584 V 0.79374995 Z m 0.264584,0 h 0.264583 v -0.2645833 h -0.264583 z m 0.264583,-0.2645833 h 0.264583 L 40.481248,-3.0000001e-8 H 40.216665 Z M 39.952083,1.0583332 v 0.2645833 h 0.264583 V 1.0583332 Z m 0.264583,0.2645833 -10e-7,0.5291667 h 0.264583 l 10e-7,-0.5291667 z M 39.687499,1.0583332 h -0.264583 v 0.2645833 h 0.264583 z m -0.264583,0.2645833 h -0.264583 l -10e-7,0.5291667 h 0.264583 z"
       sodipodi:nodetypes="ccccccccccccccccccccccccccccccccccccccccccccc"
       inkscape:label="X" /><path
       id="rect336"
       style="fill:#000000;fill-rule:evenodd;stroke-width:0.79375;stroke-linecap:round;paint-order:markers fill stroke"
       d="M 40.745832 0 L 40.745832 0.79374997 L 41.010415 0.79374997 L 41.010415 0 L 40.745832 0 z M 41.010415 0.79374997 L 41.010415 1.0583333 L 41.274999 1.0583333 L 41.274999 0.79374997 L 41.010415 0.79374997 z M 41.274999 1.0583333 L 41.274999 1.8520833 L 41.539582 1.8520833 L 41.539582 1.0583333 L 41.274999 1.0583333 z M 41.539582 1.0583333 L 41.804165 1.0583333 L 41.804165 0.79374997 L 41.539582 0.79374997 L 41.539582 1.0583333 z M 41.804165 0.79374997 L 42.068749 0.79374997 L 42.068749 0 L 41.804165 0 L 41.804165 0.79374997 z "
       inkscape:label="Y" /><path
       id="rect340"
       style="fill:#000000;fill-rule:evenodd;stroke-width:0.79375;stroke-linecap:round;paint-order:markers fill stroke"
       d="M 42.333332 0 L 42.333332 0.26458332 L 43.391665 0.26458332 L 43.391665 0.52916665 L 43.656249 0.52916665 L 43.656249 0.26458332 L 43.656249 0 L 42.333332 0 z M 43.391665 0.52916665 L 43.127082 0.52916665 L 43.127082 0.79374997 L 43.391665 0.79374997 L 43.391665 0.52916665 z M 43.127082 0.79374997 L 42.862499 0.79374997 L 42.862499 1.0583333 L 43.127082 1.0583333 L 43.127082 0.79374997 z M 42.862499 1.0583333 L 42.597915 1.0583333 L 42.597915 1.3229166 L 42.862499 1.3229166 L 42.862499 1.0583333 z M 42.597915 1.3229166 L 42.333332 1.3229166 L 42.333332 1.5874999 L 42.333332 1.8520833 L 43.656249 1.8520833 L 43.656249 1.5874999 L 42.597915 1.5874999 L 42.597915 1.3229166 z "
       inkscape:label="Z" /><path
       id="rect346"
       style="fill:#000000;fill-rule:evenodd;stroke-width:0.79375;stroke-linecap:round;paint-order:markers fill stroke"
       d="M 44.185415 0 L 44.185415 0.26458332 L 44.185415 1.5874999 L 44.185415 1.8520833 L 44.449998 1.8520833 L 44.979165 1.8520833 L 44.979165 1.5874999 L 44.449998 1.5874999 L 44.449998 0.26458332 L 44.979165 0.26458332 L 44.979165 0 L 44.449998 0 L 44.185415 0 z "
       inkscape:label="LeftBracket" /><path
       id="rect348"
       style="fill:#000000;fill-rule:evenodd;stroke-width:0.79375;stroke-linecap:round;paint-order:markers fill stroke"
       d="M 45.508332 0 L 45.508332 0.26458332 L 45.772915 0.26458332 L 45.772915 0 L 45.508332 0 z M 45.772915 0.26458332 L 45.772915 0.52916665 L 45.508332 0.52916665 L 45.508332 0.79374997 L 46.037498 0.79374997 L 46.037498 1.0583333 L 45.508332 1.0583333 L 45.508332 1.3229166 L 46.037498 1.3229166 L 46.037498 1.8520833 L 46.302082 1.8520833 L 46.302082 1.3229166 L 46.831248 1.3229166 L 46.831248 1.0583333 L 46.302082 1.0583333 L 46.302082 0.79374997 L 46.831248 0.79374997 L 46.831248 0.52916665 L 46.566665 0.52916665 L 46.566665 0.26458332 L 46.302082 0.26458332 L 46.302082 0.52916665 L 46.037498 0.52916665 L 46.037498 0.26458332 L 45.772915 0.26458332 z M 46.566665 0.26458332 L 46.831248 0.26458332 L 46.831248 0 L 46.566665 0 L 46.566665 0.26458332 z "
       inkscape:label="Yen" /><path
       id="path354"
       style="fill:#000000;fill-rule:evenodd;stroke-width:0.79375;stroke-linecap:round;paint-order:markers fill stroke"
       d="M 48.154165,0 V 0.26458332 1.5874999 1.8520833 H 47.889582 47.360415 V 1.5874999 h 0.529167 V 0.26458332 H 47.360415 V 0 h 0.529167 z"
       inkscape:label="RightBracket" /><path
       id="rect354"
       style="fill:#000000;fill-rule:evenodd;stroke-width:0.79375;stroke-linecap:round;paint-order:markers fill stroke"
       d="M 49.212498 0 L 49.212498 0.26458332 L 49.477082 0.26458332 L 49.477082 0 L 49.212498 0 z M 49.477082 0.26458332 L 49.477082 0.52916665 L 49.741665 0.52916665 L 49.741665 0.26458332 L 49.477082 0.26458332 z M 49.741665 0.52916665 L 49.741665 0.79374997 L 50.006248 0.79374997 L 50.006248 0.52916665 L 49.741665 0.52916665 z M 49.212498 0.26458332 L 48.947915 0.26458332 L 48.947915 0.52916665 L 49.212498 0.52916665 L 49.212498 0.26458332 z M 48.947915 0.52916665 L 48.683332 0.52916665 L 48.683332 0.79374997 L 48.947915 0.79374997 L 48.947915 0.52916665 z "
       inkscape:label="Carat" /><rect
       style="fill:#000000;fill-rule:evenodd;stroke-width:0.79375;stroke-linecap:round;paint-order:markers fill stroke"
       id="rect358"
       width="1.3229165"
       height="0.26458329"
       x="50.270832"
       y="1.5875"
       inkscape:label="Underscore" /><path
       id="rect359"
       style="fill:#000000;fill-rule:evenodd;stroke-width:0.79375;stroke-linecap:round;paint-order:markers fill stroke"
       d="M 52.122915 0 L 52.122915 0.26458332 L 52.387498 0.26458332 L 52.387498 0 L 52.122915 0 z M 52.387498 0.26458332 L 52.387498 0.52916665 L 52.652082 0.52916665 L 52.652082 0.26458332 L 52.387498 0.26458332 z M 52.652082 0.52916665 L 52.652082 0.79374997 L 52.916665 0.79374997 L 52.916665 0.52916665 L 52.652082 0.52916665 z "
       inkscape:label="Apostrophe" /><path
       id="rect361"
       style="fill:#000000;fill-rule:evenodd;stroke-width:0.79375;stroke-linecap:round;paint-order:markers fill stroke"
       d="M 52.122915 2.3812499 L 52.122915 2.6458332 L 52.916665 2.6458332 L 52.916665 2.3812499 L 52.122915 2.3812499 z M 52.916665 2.6458332 L 52.916665 3.4395832 L 53.181248 3.4395832 L 53.181248 2.6458332 L 52.916665 2.6458332 z M 52.916665 3.4395832 L 52.122915 3.4395832 L 52.122915 3.7041665 L 52.916665 3.7041665 L 52.916665 3.4395832 z M 52.122915 3.4395832 L 52.122915 2.6458332 L 51.858332 2.6458332 L 51.858332 3.4395832 L 52.122915 3.4395832 z "
       inkscape:label="OpenCircle" /><path
       id="rect365"
       style="fill:#000000;fill-rule:evenodd;stroke-width:0.79375;stroke-linecap:round;paint-order:markers fill stroke"
       d="M 53.710415 2.3812499 L 53.710415 2.6458332 L 53.445832 2.6458332 L 53.445832 3.4395832 L 53.710415 3.4395832 L 53.710415 3.7041665 L 54.504165 3.7041665 L 54.504165 3.4395832 L 54.768748 3.4395832 L 54.768748 2.6458332 L 54.504165 2.6458332 L 54.504165 2.3812499 L 53.710415 2.3812499 z "
       inkscape:label="FilledCircle" /><path
       id="path1"
       style="fill:#000000;fill-rule:evenodd;stroke-width:0.79375;stroke-linecap:round;paint-order:markers fill stroke"
       d="m 53.710414,-1.8520833 v 0.2645834 h -0.264583 v -0.2645834 z m 0,0.2645834 h 0.264584 v 0.2645833 h -0.264584 z m 0.264584,0.2645833 h 0.264583 v 0.2645833 h -0.264583 z m 0.264583,0.2645833 h 0.264583 v 0.26458335 h -0.264583 z m 0.264583,0.26458335 h 0.264584 v 0.26458332 h -0.264584 z"
       inkscape:label="/" /></g></svg>
